<?xml version="1.0" standalone="no"?>
<!DOCTYPE svg PUBLIC "-//W3C//DTD SVG 20010904//EN"
 "http://www.w3.org/TR/2001/REC-SVG-20010904/DTD/svg10.dtd">
<svg version="1.0" xmlns="http://www.w3.org/2000/svg"
 width="1000.000000pt" height="1000.000000pt" viewBox="0 0 1000.000000 1000.000000"
 preserveAspectRatio="xMidYMid meet">
<metadata>
Created by potrace 1.14, written by Peter Selinger 2001-2017
</metadata>
<g transform="translate(0.000000,1000.000000) scale(0.100000,-0.100000)"
fill="#000000" stroke="none">
<path d="M45 9929 c3 -41 7 -101 10 -134 2 -33 7 -105 10 -160 3 -55 8 -122
10 -150 2 -27 7 -90 10 -140 3 -49 7 -123 10 -162 3 -40 7 -106 10 -145 11
-173 16 -236 20 -283 2 -27 7 -90 10 -140 11 -183 16 -262 21 -325 3 -36 7
-96 9 -135 2 -38 7 -106 10 -150 9 -116 14 -188 20 -290 3 -49 8 -115 10 -145
2 -30 7 -100 10 -155 4 -55 8 -120 10 -145 2 -25 6 -85 10 -135 3 -49 7 -110
10 -135 2 -25 7 -94 10 -155 3 -60 8 -128 10 -150 3 -22 7 -80 10 -130 7 -114
13 -209 20 -310 3 -44 8 -107 10 -140 13 -192 17 -248 30 -420 2 -33 7 -100
10 -150 3 -49 7 -112 10 -140 4 -47 6 -80 20 -280 8 -106 13 -184 20 -275 3
-41 8 -109 10 -150 3 -41 7 -102 10 -135 2 -33 7 -98 10 -145 5 -86 12 -173
20 -265 3 -27 7 -88 10 -135 5 -87 9 -143 21 -290 3 -47 8 -105 9 -130 8 -122
17 -239 20 -275 4 -38 10 -125 20 -260 2 -33 7 -96 10 -140 3 -44 8 -100 10
-125 3 -25 7 -75 10 -112 3 -38 8 -98 11 -135 7 -93 12 -154 18 -248 3 -44 8
-98 10 -120 3 -22 8 -80 11 -130 4 -49 8 -101 10 -115 2 -14 7 -61 10 -105 4
-44 8 -91 10 -105 2 -14 7 -50 10 -81 12 -112 11 -110 116 -147 52 -19 132
-47 179 -64 47 -16 123 -43 170 -60 47 -16 121 -43 165 -59 44 -16 161 -57
260 -93 201 -72 366 -131 560 -201 72 -26 191 -69 265 -95 420 -150 761 -273
805 -290 75 -28 1111 -396 1391 -494 182 -63 361 -122 412 -136 47 -12 86 -3
342 85 69 24 145 50 170 58 150 51 1253 439 1310 462 34 13 82 30 310 111 163
57 287 101 665 238 193 70 357 129 365 131 8 2 166 58 350 125 184 67 364 132
400 144 36 13 156 56 267 96 l201 72 7 62 c3 33 8 77 10 96 4 32 8 73 20 190
3 25 7 79 11 120 3 41 7 89 8 105 2 17 6 68 10 115 4 47 9 101 11 120 2 19 7
76 10 125 4 50 8 106 10 125 2 19 6 82 10 140 3 58 8 112 10 120 2 8 6 62 10
120 4 58 8 121 10 140 2 19 6 78 10 130 4 52 8 111 10 130 2 19 6 76 10 125 3
50 8 108 9 130 2 22 7 90 11 150 4 61 9 128 10 150 2 22 6 81 10 130 3 50 8
110 10 135 2 25 7 88 10 140 3 52 8 115 10 140 2 25 7 85 10 134 4 49 8 106
10 125 2 20 6 90 10 156 4 65 8 126 10 135 1 8 6 70 10 138 3 68 8 131 10 140
1 9 6 69 9 132 4 63 9 133 11 155 2 22 7 85 10 140 3 55 8 118 10 140 3 22 7
85 10 140 4 55 8 123 10 150 2 28 7 95 10 150 3 55 8 111 10 125 2 14 6 80 10
147 3 67 7 130 9 140 2 10 7 72 11 138 3 66 8 136 10 155 2 19 6 87 10 150 4
63 8 133 10 155 5 53 15 193 20 280 10 167 17 268 30 430 2 33 7 101 10 150 5
85 9 135 20 285 2 36 7 103 10 150 7 119 15 235 20 300 3 30 7 93 10 140 3 47
8 114 10 150 2 36 7 103 10 150 5 80 8 123 20 288 8 111 16 233 20 301 l3 63
-81 -6 c-45 -3 -93 -8 -106 -11 -13 -2 -49 -7 -80 -11 -31 -3 -64 -8 -75 -10
-10 -2 -44 -6 -75 -10 -31 -3 -63 -8 -72 -9 -9 -2 -40 -6 -70 -10 -30 -3 -65
-8 -79 -10 -14 -2 -45 -6 -70 -10 -25 -3 -76 -10 -115 -15 -38 -5 -90 -12
-115 -15 -25 -4 -56 -8 -70 -10 -14 -2 -43 -6 -65 -9 -22 -3 -76 -10 -120 -16
-45 -6 -98 -13 -120 -15 -21 -3 -50 -7 -64 -10 -14 -2 -51 -7 -81 -10 -30 -3
-68 -8 -85 -11 -16 -3 -41 -7 -55 -9 -14 -2 -83 -11 -155 -20 -71 -9 -141 -18
-155 -20 -14 -2 -63 -9 -110 -15 -47 -6 -96 -13 -110 -15 -14 -2 -48 -7 -76
-10 -28 -3 -60 -7 -71 -9 -11 -3 -44 -7 -74 -11 -30 -4 -63 -8 -74 -10 -11 -1
-45 -5 -75 -9 -30 -4 -66 -9 -80 -11 -14 -2 -49 -7 -79 -10 -30 -4 -63 -9 -75
-11 -12 -2 -43 -6 -71 -9 -27 -3 -57 -8 -65 -10 -8 -2 -46 -7 -85 -11 -38 -3
-72 -7 -76 -9 -3 -2 -32 -7 -65 -10 -32 -3 -70 -8 -84 -10 -23 -5 -44 -8 -132
-19 -108 -15 -277 -38 -298 -41 -14 -2 -47 -6 -75 -10 -27 -3 -77 -10 -110
-15 -33 -5 -85 -12 -115 -15 -30 -3 -82 -10 -115 -15 -33 -5 -80 -12 -105 -15
-25 -3 -56 -8 -70 -10 -14 -2 -45 -7 -70 -10 -42 -5 -91 -12 -150 -20 -14 -2
-45 -7 -70 -10 -25 -3 -56 -8 -70 -10 -14 -2 -45 -7 -70 -10 -25 -3 -88 -13
-140 -20 -222 -33 -190 -31 -290 -21 -41 3 -88 8 -105 11 -16 2 -61 7 -100 11
-38 3 -72 8 -75 9 -3 2 -37 6 -75 10 -39 3 -77 8 -85 10 -15 4 -235 34 -295
40 -31 3 -243 31 -305 41 -71 10 -166 23 -215 29 -27 4 -61 8 -75 10 -14 2
-63 9 -110 15 -47 6 -96 13 -110 15 -14 2 -95 14 -180 25 -85 12 -164 23 -175
25 -11 1 -47 6 -80 9 -33 4 -67 9 -75 11 -8 2 -37 7 -65 10 -27 3 -68 9 -90
12 -22 4 -49 7 -60 8 -25 3 -103 14 -130 19 -11 2 -45 7 -76 10 -31 4 -67 9
-80 11 -13 3 -43 7 -66 10 -43 5 -166 22 -213 30 -14 2 -50 7 -80 10 -30 4
-64 9 -75 11 -11 2 -38 6 -60 9 -77 9 -120 16 -180 25 -33 5 -82 12 -110 15
-27 3 -57 7 -65 10 -8 2 -42 6 -75 10 -33 3 -67 8 -75 10 -8 2 -36 7 -62 10
-47 5 -91 11 -158 21 -19 3 -51 7 -70 10 -19 2 -80 11 -135 19 -55 8 -120 17
-145 20 -25 3 -56 7 -70 10 -14 3 -41 7 -60 9 -19 3 -134 19 -255 36 -121 17
-250 34 -287 37 l-68 6 5 -74z"/>
</g>
</svg>
