<?xml version="1.0" standalone="no"?>
<!DOCTYPE svg PUBLIC "-//W3C//DTD SVG 20010904//EN"
 "http://www.w3.org/TR/2001/REC-SVG-20010904/DTD/svg10.dtd">
<svg version="1.0" xmlns="http://www.w3.org/2000/svg"
 width="500.000000pt" height="500.000000pt" viewBox="0 0 500.000000 500.000000"
 preserveAspectRatio="xMidYMid meet">
<metadata>
Created by potrace 1.14, written by Peter Selinger 2001-2017
</metadata>
<g transform="translate(0.000000,500.000000) scale(0.100000,-0.100000)"
fill="#000000" stroke="none">
<path d="M0 2500 l0 -2500 2500 0 2500 0 0 2500 0 2500 -2500 0 -2500 0 0
-2500z m4530 -5 l0 -2025 -2025 0 -2025 0 0 2025 0 2025 2025 0 2025 0 0
-2025z"/>
<path d="M824 4211 l259 -260 86 74 c230 196 477 332 751 415 l95 29 -725 0
-725 1 259 -259z"/>
<path d="M3100 4436 c282 -87 532 -229 771 -435 l45 -40 255 255 254 254 -715
0 -715 -1 105 -33z"/>
<path d="M2220 4443 c-337 -51 -664 -192 -925 -399 -44 -35 -99 -80 -123 -101
l-43 -38 350 -349 349 -349 247 494 c136 272 279 554 317 627 l70 132 -74 -1
c-40 -1 -116 -8 -168 -16z"/>
<path d="M2863 3840 l312 -619 348 347 347 347 -37 33 c-207 180 -418 308
-653 395 -174 65 -428 117 -568 117 l-61 0 312 -620z"/>
<path d="M4218 4173 l-257 -258 45 -50 c201 -226 352 -491 440 -775 l33 -105
1 723 c0 397 -1 722 -3 722 -1 0 -118 -116 -259 -257z"/>
<path d="M530 3700 l1 -715 33 105 c87 282 229 532 435 771 l40 45 -255 255
-254 254 0 -715z"/>
<path d="M2189 3786 l-314 -625 310 -311 310 -310 317 317 316 316 -233 466
c-128 256 -269 535 -313 619 l-79 153 -314 -625z"/>
<path d="M3560 3515 l-355 -355 160 -320 160 -320 472 0 473 0 0 71 c0 151
-50 400 -117 579 -90 243 -217 451 -400 658 l-38 43 -355 -356z"/>
<path d="M1020 3784 c-212 -248 -352 -519 -429 -829 -27 -111 -51 -279 -51
-364 l0 -71 473 0 472 0 157 313 156 314 -356 356 -357 357 -65 -76z"/>
<path d="M2860 2815 l-295 -295 443 0 c243 0 442 2 442 5 0 7 -289 585 -293
585 -1 0 -135 -133 -297 -295z"/>
<path d="M1702 2814 c-79 -158 -141 -288 -139 -290 2 -2 197 -3 433 -2 l429 3
-290 287 -291 287 -142 -285z"/>
<path d="M540 2399 c0 -283 126 -680 304 -959 l54 -84 276 552 c152 304 276
554 276 557 0 3 -205 5 -455 5 l-455 0 0 -71z"/>
<path d="M1522 2458 c-5 -7 -138 -270 -296 -585 l-286 -572 53 -62 c28 -34 61
-73 72 -86 l20 -24 670 671 670 670 -446 0 c-345 0 -449 -3 -457 -12z"/>
<path d="M2571 2468 c2 -2 307 -304 677 -673 l673 -670 22 26 c12 14 46 54 74
88 l53 62 -293 584 -292 585 -459 0 c-253 0 -457 -1 -455 -2z"/>
<path d="M3560 2465 c0 -3 124 -253 276 -557 l276 -552 54 84 c178 279 304
676 304 959 l0 71 -455 0 c-250 0 -455 -2 -455 -5z"/>
<path d="M1812 1767 l-682 -682 57 -51 c150 -131 272 -214 438 -297 286 -143
562 -208 880 -208 318 0 594 65 880 208 163 82 295 172 450 308 l40 35 -685
685 c-377 377 -687 685 -690 685 -3 0 -312 -307 -688 -683z"/>
<path d="M531 1320 l-1 -685 36 65 c19 36 95 184 168 330 l133 265 -39 55
c-102 143 -211 370 -268 560 l-29 95 0 -685z"/>
<path d="M4456 1932 c-43 -167 -171 -438 -274 -582 l-40 -55 167 -328 166
-328 3 340 c1 188 1 495 0 683 l-3 342 -19 -72z"/>
<path d="M767 953 l-139 -278 206 204 205 205 -26 30 c-14 17 -42 50 -62 74
-19 23 -38 42 -41 42 -3 0 -67 -125 -143 -277z"/>
<path d="M4031 1154 l-64 -76 217 -216 218 -217 -149 292 c-81 161 -150 293
-153 293 -3 0 -34 -34 -69 -76z"/>
<path d="M824 779 l-259 -259 725 1 725 0 -95 29 c-274 83 -521 219 -751 415
l-86 74 -259 -260z"/>
<path d="M3850 973 c-226 -196 -471 -333 -750 -419 l-105 -33 720 -1 720 0
-255 255 c-140 140 -257 255 -260 255 -3 0 -34 -26 -70 -57z"/>
</g>
</svg>
